<?xml version="1.0" encoding="utf-8"?>
<!-- Generator: Adobe Illustrator 21.1.0, SVG Export Plug-In . SVG Version: 6.00 Build 0)  -->
<svg version="1.1" xmlns="http://www.w3.org/2000/svg" xmlns:xlink="http://www.w3.org/1999/xlink" x="0px" y="0px"
	 viewBox="0 0 400 114" style="enable-background:new 0 0 400 114;" xml:space="preserve">
<style type="text/css">
	.st0{fill:#DD8717;}
	.st1{fill:#86B8D1;}
	.st2{fill:#50994F;}
	.st3{fill:#FFFFFF;}
</style>
<g id="Layer_1">
</g>
<g id="Layer_2">
	<g>
		<path class="st0" d="M35.541,24.407h27.377c20.837,0,32.33,13.13,32.33,31.952c0,19.557-10.839,32.319-31.676,32.319H35.541
			V24.407z"/>
	</g>
	<circle class="st1" cx="107.766" cy="56.359" r="32.136"/>
	<path class="st2" d="M95.248,56.354c0,10.168-2.93,18.506-8.677,24.154c-6.711-5.89-10.944-14.529-10.944-24.154
		c0-9.43,4.06-17.903,10.522-23.778C92.115,38.247,95.248,46.525,95.248,56.354z"/>
	<g>
		<path class="st3" d="M165.033,28.14c1.578,0,3.123,0.298,4.567,0.892c1.41,0.594,2.653,1.419,3.728,2.476
			c1.108,1.089,1.948,2.31,2.52,3.696c0.638,1.419,0.939,2.938,0.939,4.488c0,1.585-0.302,3.103-0.939,4.521
			c-0.571,1.387-1.411,2.607-2.52,3.664c-1.074,1.056-2.317,1.914-3.728,2.476c-1.444,0.627-2.989,0.924-4.567,0.924h-4.735v-0.033
			h-1.915V28.14H165.033z M165.033,46.655c3.896,0,7.053-3.135,7.053-6.964c0-3.828-3.157-6.931-7.053-6.931h-1.948v13.895H165.033z
			"/>
		<path class="st3" d="M193.478,49.032c-1.377,1.617-3.493,2.641-5.811,2.641c-4.231,0-7.69-3.4-7.69-7.559
			c0-4.191,3.459-7.558,7.69-7.558s7.691,3.366,7.691,7.558c0,0.462-0.034,0.892-0.135,1.354h-10.814
			c0.202,0.528,0.471,0.99,0.84,1.386c0.705,0.76,1.612,1.155,2.586,1.155c0.907,0,1.813-0.396,2.485-1.056L193.478,49.032z
			 M191.294,42.959c-0.168-0.594-0.47-1.155-0.906-1.617c-0.672-0.726-1.612-1.122-2.553-1.122c-0.974,0-1.881,0.396-2.586,1.122
			c-0.403,0.462-0.705,1.023-0.907,1.617H191.294z"/>
		<path class="st3" d="M209.631,41.474c-2.184-2.343-6.886-0.857-6.886,2.707c0,3.168,4.366,5.182,6.886,2.739l1.88,3.301
			c-1.343,0.891-2.988,1.452-4.769,1.452c-4.434,0-8.026-3.367-8.026-7.559c0-4.158,3.593-7.525,8.026-7.525
			c1.813,0,3.459,0.562,4.836,1.519L209.631,41.474z"/>
		<path class="st3" d="M227.43,49.032c-1.377,1.617-3.493,2.641-5.811,2.641c-4.231,0-7.69-3.4-7.69-7.559
			c0-4.191,3.459-7.558,7.69-7.558s7.691,3.366,7.691,7.558c0,0.462-0.034,0.892-0.135,1.354h-10.814
			c0.202,0.528,0.471,0.99,0.84,1.386c0.705,0.76,1.612,1.155,2.586,1.155c0.907,0,1.813-0.396,2.485-1.056L227.43,49.032z
			 M225.246,42.959c-0.168-0.594-0.47-1.155-0.906-1.617c-0.672-0.726-1.612-1.122-2.553-1.122c-0.974,0-1.881,0.396-2.586,1.122
			c-0.403,0.462-0.705,1.023-0.907,1.617H225.246z"/>
		<path class="st3" d="M236.093,38.306c1.143-0.99,2.653-1.65,4.131-1.65c3.896,0,7.087,3.366,7.087,7.558v7.063h-4.098v-7.063
			c0-2.046-1.478-3.861-3.493-3.861c-2.015,0-3.492,1.815-3.492,3.861v7.063h-4.231V37.052h3.425L236.093,38.306z"/>
		<path class="st3" d="M260.744,37.052v3.861h-3.358v10.363h-4.266V40.913h-3.022v-3.861h3.022v-5.281h4.266v5.281H260.744z"/>
		<path class="st3" d="M181.109,72.691c0,6.602-5.475,11.981-12.191,11.981s-12.191-5.38-12.191-11.981
			c0-6.601,5.475-11.98,12.191-11.98S181.109,66.091,181.109,72.691z M161.563,72.691c0,3.994,3.291,7.229,7.354,7.229
			c4.064,0,7.355-3.234,7.355-7.229c0-3.993-3.291-7.228-7.355-7.228C164.854,65.464,161.563,68.698,161.563,72.691z"/>
		<path class="st3" d="M189,71.669c1.074-1.387,2.988-1.98,4.903-1.98c0.839,0,1.679,0.132,2.451,0.396l-1.646,3.664
			c-2.452-1.057-4.937,0.396-5.374,2.673v7.855h-4.197V70.052h3.258L189,71.669z"/>
		<path class="st3" d="M212.441,72.296c1.041,1.089,1.679,2.541,1.679,4.125c0,3.564-3.19,6.437-7.153,6.437
			c-0.537,0-1.041-0.066-1.545-0.165c-0.302,0.528-0.604,1.122-0.84,1.716c0.772-0.099,1.612-0.165,2.553-0.165
			c2.687,0,4.668,0.43,6.079,1.287c1.478,0.925,2.283,2.344,2.283,3.994c0,1.716-0.738,3.069-2.183,3.993
			c-1.377,0.858-3.392,1.287-6.18,1.287c-2.787,0-4.803-0.429-6.18-1.287c-1.444-0.924-2.183-2.277-2.183-3.993
			c0-0.66,0.134-1.287,0.402-1.882c0.672-2.211,2.217-4.653,3.325-6.205c-1.578-1.188-2.619-3.003-2.619-5.017
			c0-3.564,3.19-6.436,7.086-6.436c0.336,0,0.672,0.033,1.008,0.066l6.918-1.288v2.74L212.441,72.296z M211.366,89.524
			c0-0.99-1.713-1.519-4.231-1.519c-2.653,0-4.231,0.627-4.231,1.519c0,1.056,1.545,1.518,4.231,1.518
			C210.023,91.042,211.366,90.58,211.366,89.524z M203.944,76.421c0,1.617,1.512,2.739,3.022,2.739c1.746,0,3.057-1.319,3.057-2.739
			c0-1.551-1.377-2.739-3.057-2.739C205.254,73.682,203.944,75.002,203.944,76.421z"/>
		<path class="st3" d="M233.563,70.052v14.225h-3.56v-1.386c-1.344,1.122-3.09,1.782-4.971,1.782c-4.265,0-7.69-3.367-7.69-7.525
			c0-4.191,3.426-7.525,7.69-7.525c1.881,0,3.627,0.66,4.971,1.782l0.336-1.353H233.563z M229.332,77.147
			c0-1.023-0.369-2.014-1.108-2.739c-0.705-0.727-1.646-1.122-2.653-1.122c-1.007,0-1.947,0.396-2.687,1.122
			c-0.705,0.726-1.108,1.716-1.108,2.739s0.403,1.98,1.108,2.739c0.739,0.727,1.68,1.122,2.687,1.122
			c1.008,0,1.948-0.396,2.653-1.122C228.963,79.128,229.332,78.171,229.332,77.147z"/>
		<path class="st3" d="M241.187,71.306c1.143-0.99,2.653-1.65,4.131-1.65c3.896,0,7.087,3.366,7.087,7.558v7.063h-4.098v-7.063
			c0-2.046-1.478-3.861-3.493-3.861c-2.015,0-3.492,1.815-3.492,3.861v7.063h-4.231V70.052h3.425L241.187,71.306z"/>
		<path class="st3" d="M255.93,65.761V61.14h4.332v4.621H255.93z M255.93,84.276V70.052h4.332v14.225H255.93z"/>
		<path class="st3" d="M265.835,79.425c2.116,2.376,5.341,2.476,5.341,0.693c0-1.057-1.042-1.387-2.116-1.717
			c-2.821-0.858-4.77-1.716-4.77-4.455c0-2.607,2.385-4.324,5.139-4.324c2.485,0,3.829,0.528,5.776,1.684l-1.947,3.003
			c-2.821-1.979-4.735-1.814-4.938-0.297c-0.168,1.057,1.411,1.254,3.09,1.815c2.049,0.594,3.963,1.947,3.963,4.39
			c0,2.277-2.384,4.456-5.34,4.456c-2.619,0-5.104-0.825-6.885-2.575L265.835,79.425z"/>
		<path class="st3" d="M294.146,70.052v14.225h-3.56v-1.386c-1.344,1.122-3.09,1.782-4.971,1.782c-4.265,0-7.69-3.367-7.69-7.525
			c0-4.191,3.426-7.525,7.69-7.525c1.881,0,3.627,0.66,4.971,1.782l0.336-1.353H294.146z M289.914,77.147
			c0-1.023-0.369-2.014-1.108-2.739c-0.705-0.727-1.646-1.122-2.653-1.122c-1.007,0-1.947,0.396-2.687,1.122
			c-0.705,0.726-1.108,1.716-1.108,2.739s0.403,1.98,1.108,2.739c0.739,0.727,1.68,1.122,2.687,1.122
			c1.008,0,1.948-0.396,2.653-1.122C289.545,79.128,289.914,78.171,289.914,77.147z"/>
		<path class="st3" d="M308.251,70.052v3.861h-3.358v10.363h-4.266V73.913h-3.022v-3.861h3.022v-5.281h4.266v5.281H308.251z"/>
		<path class="st3" d="M311.709,65.761V61.14h4.332v4.621H311.709z M311.709,84.276V70.052h4.332v14.225H311.709z"/>
		<path class="st3" d="M335.251,77.147c0,4.191-3.56,7.525-8.026,7.525c-4.434,0-7.993-3.334-7.993-7.525
			c0-4.159,3.56-7.525,7.993-7.525C331.691,69.622,335.251,72.988,335.251,77.147z M331.02,77.114c0-1.023-0.369-1.98-1.075-2.706
			c-0.738-0.76-1.646-1.155-2.687-1.155c-0.974,0-1.948,0.396-2.619,1.155c-0.772,0.726-1.143,1.716-1.143,2.739
			c0,1.056,0.37,2.013,1.143,2.772c0.671,0.726,1.646,1.122,2.619,1.122c1.041,0,1.948-0.396,2.687-1.122
			C330.65,79.16,331.02,78.171,331.02,77.114z"/>
		<path class="st3" d="M342.536,71.306c1.143-0.99,2.653-1.65,4.131-1.65c3.896,0,7.087,3.366,7.087,7.558v7.063h-4.098v-7.063
			c0-2.046-1.478-3.861-3.493-3.861c-2.015,0-3.492,1.815-3.492,3.861v7.063h-4.231V70.052h3.425L342.536,71.306z"/>
		<path class="st3" d="M359.327,79.425c2.116,2.376,5.341,2.476,5.341,0.693c0-1.057-1.042-1.387-2.116-1.717
			c-2.821-0.858-4.77-1.716-4.77-4.455c0-2.607,2.385-4.324,5.139-4.324c2.485,0,3.829,0.528,5.776,1.684l-1.947,3.003
			c-2.821-1.979-4.735-1.814-4.938-0.297c-0.168,1.057,1.411,1.254,3.09,1.815c2.049,0.594,3.963,1.947,3.963,4.39
			c0,2.277-2.384,4.456-5.34,4.456c-2.619,0-5.104-0.825-6.885-2.575L359.327,79.425z"/>
	</g>
</g>
</svg>
