<svg xmlns="http://www.w3.org/2000/svg" viewBox="0 0 88 90"><style>.st0{fill:none;stroke:currentColor;stroke-width:2.5;stroke-miterlimit:10}</style><g id="Layer_2"><circle class="st0" cx="46.939" cy="41" r="9.061"/><circle class="st0" cx="34.903" cy="61.592" r="6.024"/><path class="st0" d="M49.853 49.578l4.403 14.966-4.687 10.583"/><path class="st0" d="M40.768 62.949l13.488 1.595 11.237-10.01M53.629 64.544l8.41 5.566"/><path class="st0" d="M76.427 43.137c0 10.491-4.974 19.82-12.693 25.757a32.335 32.335 0 0 1-19.782 6.718c-17.936 0-32.475-14.54-32.475-32.475s14.54-32.475 32.475-32.475 32.475 14.539 32.475 32.475zM73.536 56.953a6.024 6.024 0 1 1 2.567-8.123"/></g></svg>
